<?xml version="1.0" encoding="UTF-8"?>
<svg version="1.1" xmlns="http://www.w3.org/2000/svg" width="462" height="540">
<path d="M0 0 C1.32 0 2.64 0 4 0 C4.80406791 1.78613559 5.59249637 3.57931249 6.375 5.375 C6.81585938 6.37273438 7.25671875 7.37046875 7.7109375 8.3984375 C10.81640029 17.07491232 11.32629285 25.57474691 11.37109375 34.73046875 C11.38193497 35.94335068 11.39277618 37.1562326 11.40394592 38.40586853 C11.42582174 41.66150128 11.43631263 44.91682314 11.43685913 48.1725235 C11.43750285 50.19646955 11.4420672 52.22038353 11.44677734 54.24432373 C11.47098925 72.53825986 10.73726525 90.51059522 7.77905273 108.59448242 C7.54979348 110.00295841 7.321336 111.41156518 7.09375 112.8203125 C6.9861586 113.48217056 6.8785672 114.14402863 6.76771545 114.82594299 C5.56758214 122.85151676 5.78735257 130.90876515 6 139 C10.99164949 131.53179854 14.75638108 123.51913305 18.625 115.4375 C19.33883142 113.95624818 20.05310992 112.47521173 20.76782227 110.99438477 C23.92983806 104.4355773 27.06947867 97.86665177 30.17578125 91.28125 C58.93003244 30.36248648 58.93003244 30.36248648 79 22 C81.140625 22.44140625 81.140625 22.44140625 83 23 C75.94203024 57.54388451 55.14031279 83.92872139 33.875 111.125 C22.67458328 124.78094303 22.67458328 124.78094303 14 140 C14.33 140.66 14.66 141.32 15 142 C25.80849045 135.19150208 36.41446745 128.19260926 46.75 120.6875 C70.39031013 103.54771987 94.68373369 86.28855534 123 78 C123.70125 77.79375 124.4025 77.5875 125.125 77.375 C127.37105828 76.92578834 129.46145741 76.90384496 131.75 76.9375 C132.54921875 76.94652344 133.3484375 76.95554687 134.171875 76.96484375 C134.77515625 76.97644531 135.3784375 76.98804687 136 77 C124.97434323 100.58265476 94.32187256 113.50310748 72 124 C71.34628418 124.30824707 70.69256836 124.61649414 70.01904297 124.93408203 C58.71315221 130.21453065 47.12938422 134.77125013 35.48144531 139.23168945 C33.74846191 139.90010864 33.74846191 139.90010864 31.98046875 140.58203125 C30.94817139 140.97624268 29.91587402 141.3704541 28.85229492 141.77661133 C26.05882868 142.97476757 23.56373492 144.3735635 21 146 C21.33 147.32 21.66 148.64 22 150 C30.49195831 150.26713605 38.62856517 149.57215599 47.03631592 148.4041748 C131.85690457 136.71729429 131.85690457 136.71729429 157 153 C148.63911986 162.13984413 132.98071839 163.30304524 121.38671875 163.875 C100.67860162 164.53347649 80.55159643 163.3513451 60.01171875 160.75390625 C59.12553864 160.64196426 58.23935852 160.53002228 57.32632446 160.41468811 C52.86031029 159.84819207 48.39600941 159.2711914 43.93359375 158.67700195 C35.90359845 157.62262094 28.11998034 156.68287847 20 157 C19.67 157.99 19.34 158.98 19 160 C31.78433841 166.22261564 44.79862326 171.72460681 58 177 C58 177.99 58 178.98 58 180 C56.61518672 180.87191947 55.21654754 181.72190384 53.8125 182.5625 C53.03519531 183.03816406 52.25789062 183.51382813 51.45703125 184.00390625 C48.40044438 185.24306309 47.14398193 184.89490418 44 184 C41.73925781 182.68066406 41.73925781 182.68066406 39.453125 181.015625 C38.6075 180.40976563 37.761875 179.80390625 36.890625 179.1796875 C36.01921875 178.54289063 35.1478125 177.90609375 34.25 177.25 C28.02281097 172.72966098 21.82979463 168.56210904 15 165 C14.34918109 166.86050049 14.34918109 166.86050049 14 169 C15.51947514 171.95575875 15.51947514 171.95575875 17.8125 175 C18.2139624 175.56162842 18.6154248 176.12325684 19.02905273 176.7019043 C23.38884921 182.71058201 28.15154893 188.38227486 33 194 C31.27845212 197.76488042 29.00765886 200.15063897 26 203 C23 202 23 202 21.91259766 200.20922852 C21.58308105 199.44022217 21.25356445 198.67121582 20.9140625 197.87890625 C20.35706665 196.60515137 20.35706665 196.60515137 19.78881836 195.30566406 C19.21272827 193.94779785 19.21272827 193.94779785 18.625 192.5625 C17.82834839 190.73501133 17.03018601 188.90818046 16.23046875 187.08203125 C15.84810059 186.20369629 15.46573242 185.32536133 15.07177734 184.42041016 C13.20366416 180.20162335 11.1399693 176.08637354 9 172 C7.68 172 6.36 172 5 172 C5.56045258 182.41936542 6.63197526 192.66857195 8.0625 203 C8.43376599 205.68680177 8.79867293 208.37436675 9.16015625 211.0625 C9.32136963 212.22910156 9.48258301 213.39570313 9.64868164 214.59765625 C10.66482528 224.43850252 10.66482528 224.43850252 8.46875 229.18359375 C8.15292969 229.88291016 7.83710938 230.58222656 7.51171875 231.30273438 C7.01091797 232.35944336 7.01091797 232.35944336 6.5 233.4375 C5.99919922 234.53481445 5.99919922 234.53481445 5.48828125 235.65429688 C4.6705607 237.44160035 3.83689653 239.22159487 3 241 C2.34 241 1.68 241 1 241 C-4.20083912 231.13007837 -7.09955284 223.68087358 -5.35302734 212.33251953 C-4.60697535 207.40321059 -4.04291151 202.4481665 -3.4375 197.5 C-3.23314331 195.88472412 -3.23314331 195.88472412 -3.0246582 194.23681641 C-2.02847036 186.09724797 -1.64029923 178.19318425 -2 170 C-5.85676747 173.85676747 -8.12826373 178.06807879 -10.375 183 C-10.67881592 183.65629395 -10.98263184 184.31258789 -11.2956543 184.98876953 C-13.68548737 190.1939103 -15.87272481 195.46943212 -17.95703125 200.8046875 C-19 203 -19 203 -21 204 C-23.64 201.69 -26.28 199.38 -29 197 C-27.47607866 193.95215733 -25.99808021 191.42756791 -24.06640625 188.6640625 C-23.49986328 187.84679687 -22.93332031 187.02953125 -22.34960938 186.1875 C-21.16314675 184.48625522 -19.97565498 182.78572769 -18.78710938 181.0859375 C-13.38089388 174.11456379 -13.38089388 174.11456379 -11 166 C-14.18127425 167.19778547 -16.99199303 168.47934358 -19.8125 170.375 C-20.57820312 170.88804687 -21.34390625 171.40109375 -22.1328125 171.9296875 C-24.45935204 173.60961387 -26.69366201 175.33739365 -28.9296875 177.1328125 C-29.62989014 177.68533691 -30.33009277 178.23786133 -31.05151367 178.80712891 C-32.46158946 179.92468126 -33.85808855 181.05960834 -35.23950195 182.21240234 C-37.12146408 183.69535619 -38.83517071 184.97173489 -41 186 C-44.24609375 185.4765625 -44.24609375 185.4765625 -47 184 C-47.69867188 183.64679688 -48.39734375 183.29359375 -49.1171875 182.9296875 C-50.74479167 181.953125 -52.37239583 180.9765625 -54 180 C-54 179.34 -54 178.68 -54 178 C-53.29327148 177.71229736 -52.58654297 177.42459473 -51.85839844 177.12817383 C-43.89046126 173.85057805 -36.06017141 170.32311712 -28.25 166.6875 C-27.0640625 166.13771484 -25.878125 165.58792969 -24.65625 165.02148438 C-21.7698723 163.6830431 -18.88448151 162.34252157 -16 161 C-16 160.01 -16 159.02 -16 158 C-36.176572 159.26785539 -36.176572 159.26785539 -56.20214844 161.9465332 C-68.84169857 164.07135771 -81.46709484 164.21511993 -94.25244141 164.24023438 C-97.22977713 164.24993412 -100.20641924 164.28104232 -103.18359375 164.3125 C-119.80348174 164.40380381 -137.13286011 163.21605099 -152 155 C-151 152 -151 152 -149.53125 150.9375 C-136.19660562 144.78304875 -121.0506686 144.45886165 -106.625 144.5625 C-105.3670462 144.56456955 -105.3670462 144.56456955 -104.0836792 144.56668091 C-82.25253978 144.63188131 -60.58930163 146.89018935 -38.91748047 149.34985352 C-33.21824926 149.97429777 -27.60657226 150.12089376 -21.875 150.0625 C-21.01390625 150.05798828 -20.1528125 150.05347656 -19.265625 150.04882812 C-17.17705215 150.03722494 -15.08851593 150.0192984 -13 150 C-18.7315561 145.73941993 -24.55301394 142.79708215 -31.20068359 140.25366211 C-36.41890273 138.25700737 -41.46750334 135.99683451 -46.51171875 133.58984375 C-49.53243008 132.21310298 -52.56737599 130.93069836 -55.63671875 129.66796875 C-76.01706245 121.21934981 -97.17631674 111.56525107 -114 97 C-114.82757813 96.29230469 -115.65515625 95.58460937 -116.5078125 94.85546875 C-128.00008799 84.78686321 -128.00008799 84.78686321 -131 80 C-130.505 78.515 -130.505 78.515 -130 77 C-97.73514558 77.13937302 -66.54998223 103.68856683 -42.04516602 121.83398438 C-36.81237577 125.69680742 -31.53672888 129.48746526 -26.1875 133.1875 C-25.54804443 133.63295166 -24.90858887 134.07840332 -24.24975586 134.53735352 C-17.66997645 139.27805599 -17.66997645 139.27805599 -10 141 C-13.43987585 132.97965788 -18.27466589 126.41559752 -23.67822266 119.65576172 C-30.85762469 110.66228101 -37.60085464 101.41777432 -44.19140625 91.98828125 C-46.42337605 88.80028563 -48.72508036 85.67427953 -51.0625 82.5625 C-63.91367507 64.91890757 -76.49337211 44.22276141 -78 22 C-73.55175141 22.52096605 -71.12407776 24.12205185 -67.6875 26.9375 C-66.36298828 28.00291016 -66.36298828 28.00291016 -65.01171875 29.08984375 C-64.34785156 29.72019531 -63.68398437 30.35054687 -63 31 C-63 31.66 -63 32.32 -63 33 C-61.515 33.495 -61.515 33.495 -60 34 C-38.51110908 56.82303706 -25.26217978 89.92181056 -13.28271484 118.50537109 C-9.7470831 127.07761082 -9.7470831 127.07761082 -5 135 C-4.01 135.33 -3.02 135.66 -2 136 C-1.77302142 125.25298457 -2.22961187 114.84931477 -3.5958252 104.18856812 C-4.08098176 100.38522275 -4.52665893 96.57717989 -4.9765625 92.76953125 C-5.06627319 92.01573685 -5.15598389 91.26194244 -5.24841309 90.48530579 C-8.73571042 60.97032719 -12.0478471 28.12957157 0 0 Z M-3 138 C-2 140 -2 140 -2 140 Z M-10 164 C-9 166 -9 166 -9 166 Z " fill="#F1C073" transform="translate(229,0)"/>
<path d="M0 0 C1.1650708 0.00141495 2.3301416 0.0028299 3.53051758 0.00428772 C7.2287052 0.00985709 10.92683087 0.02240394 14.625 0.03515625 C17.14192621 0.04017521 19.65885337 0.04473742 22.17578125 0.04882812 C28.32554174 0.05981649 34.47526644 0.07652397 40.625 0.09765625 C39.5593272 7.31248264 36.4841335 11.31579663 31.3125 16.34765625 C22.604177 22.01819215 15.13265413 22.68176411 4.8125 22.72265625 C-13.45668673 22.90525682 -29.2770138 24.46073408 -43.375 37.09765625 C-44.12523437 37.74347656 -44.87546875 38.38929688 -45.6484375 39.0546875 C-57.70343859 50.14281991 -63.81428344 65.05414679 -64.51303101 81.30856323 C-64.51952667 82.40282623 -64.52602234 83.49708923 -64.53271484 84.62451172 C-64.54810806 86.50213699 -64.54810806 86.50213699 -64.56381226 88.41769409 C-64.56725018 89.0768771 -64.5706881 89.7360601 -64.57423019 90.41521835 C-64.58614887 92.50184909 -64.60563178 94.58828463 -64.62734985 96.67483521 C-64.68854055 102.60298067 -64.74292558 108.53110007 -64.77636719 114.45947266 C-64.79743739 118.09873585 -64.83282942 121.73763097 -64.87712479 125.37668228 C-64.89117801 126.75357836 -64.89998279 128.13053942 -64.90317917 129.50750351 C-64.93505287 141.92063527 -66.25496091 149.76274981 -74.9609375 158.8515625 C-78.07986544 161.75347766 -81.3073317 164.66047152 -85.375 166.09765625 C-86.71798085 165.80560948 -88.05377667 165.47615039 -89.375 165.09765625 C-89.42156011 153.86568912 -89.45698864 142.63374535 -89.47862434 131.40170097 C-89.48901398 126.18492065 -89.50308403 120.96820688 -89.52587891 115.75146484 C-89.54778058 110.70695476 -89.55960477 105.66250826 -89.56475449 100.61795425 C-89.5684194 98.70366542 -89.57557499 96.78937965 -89.58646011 94.87511826 C-89.73616253 67.4301413 -84.5436296 45.08772042 -65.125 24.53515625 C-46.60013459 6.76299417 -25.1552007 -0.11612777 0 0 Z " fill="#F0BB67" transform="translate(336.375,189.90234375)"/>
<path d="M0 0 C7.3099465 -0.05111648 14.61984613 -0.08590678 21.92993164 -0.10986328 C24.41172 -0.11986074 26.89349676 -0.13346314 29.37524414 -0.15087891 C32.96243164 -0.17540422 36.54946209 -0.18654601 40.13671875 -0.1953125 C41.77503914 -0.21079636 41.77503914 -0.21079636 43.44645691 -0.22659302 C65.53192782 -0.2297401 85.41604299 6.12437453 102 21 C102.90621094 21.81210938 103.81242187 22.62421875 104.74609375 23.4609375 C119.1470438 37.08291799 129.12871588 55.1610695 130.10979271 75.24792862 C130.28053251 81.66961836 130.22961523 88.09243232 130.1953125 94.515625 C130.19157575 96.58355573 130.18873191 98.65148824 130.18673706 100.71942139 C130.17915267 106.12474579 130.15954958 111.52996029 130.1373291 116.9352417 C130.11675795 122.46592727 130.10771139 127.99663084 130.09765625 133.52734375 C130.07629815 144.35161041 130.04222594 155.17579602 130 166 C121.62483653 164.75199795 116.51332309 160.21990131 111.25 153.7265625 C106.83296357 147.62553093 105.88119052 141.99724215 105.8581543 134.62768555 C105.85111984 133.35833664 105.84408539 132.08898773 105.83683777 130.78117371 C105.83502188 130.10674917 105.83320599 129.43232464 105.83133507 128.737463 C105.82410405 126.60285828 105.80838345 124.46847489 105.78999329 122.3339386 C105.73787517 116.2661976 105.68972352 110.19857459 105.67407227 104.13061523 C105.66384907 100.40926951 105.63416431 96.68847938 105.59275246 92.96735573 C105.58062967 91.56554225 105.57528599 90.16364958 105.57755089 88.76178551 C105.60064805 69.77712624 100.94043413 53.45274207 87.64453125 39.38671875 C75.22213912 28.17537223 61.409576 23.0799919 44.7890625 22.859375 C44.13169098 22.84970703 43.47431946 22.84003906 42.79702759 22.83007812 C38.6784634 22.77031842 38.6784634 22.77031842 34.55957031 22.74951172 C24.22603927 22.73229736 16.6827941 21.39548456 8.37890625 14.97265625 C0 6.16129032 0 6.16129032 0 0 Z " fill="#F1BD69" transform="translate(85,190)"/>
<path d="M0 0 C1.50771973 -0.00350464 1.50771973 -0.00350464 3.04589844 -0.00708008 C7.93324824 0.01470656 12.82037637 0.04083702 17.70751953 0.09130859 C20.7788231 0.12286459 23.84994837 0.14210299 26.92138672 0.15478516 C31.2038769 0.17467733 35.48538264 0.22306091 39.76742554 0.28741455 C41.44916399 0.30905328 43.13102672 0.32274631 44.81289673 0.32781982 C57.5419299 0.37776442 72.28797808 1.03491269 81.8515625 10.671875 C88.26180982 18.33140375 88.8628663 27.50368037 88.07421875 37.1328125 C86.84502086 44.25098576 83.40236534 49.32393444 78.07421875 54.1328125 C73.10546875 57.1328125 73.10546875 57.1328125 70.07421875 57.1328125 C70.07421875 57.7928125 70.07421875 58.4528125 70.07421875 59.1328125 C69.08421875 60.1228125 69.08421875 60.1228125 68.07421875 61.1328125 C69.15703125 62.2465625 69.15703125 62.2465625 70.26171875 63.3828125 C76.24150633 70.65235818 78.56000539 80.48632211 81.57421875 89.2578125 C84.96694945 99.10893952 88.73477239 107.80096871 95.07421875 116.1328125 C93.31420956 117.89282169 90.89927781 117.34695429 88.51171875 117.3828125 C81.70232041 117.31002796 77.03406445 116.31746051 71.44921875 112.1953125 C64.96690379 103.83653794 61.60483657 93.66694473 58.14135742 83.78320312 C55.29810402 75.93791622 51.4375735 67.62266296 44.07421875 63.1328125 C37.14229149 60.24450948 32.23329073 61.1328125 24.07421875 61.1328125 C24.40421875 77.6328125 24.73421875 94.1328125 25.07421875 111.1328125 C29.36421875 111.4628125 33.65421875 111.7928125 38.07421875 112.1328125 C37.74421875 113.7828125 37.41421875 115.4328125 37.07421875 117.1328125 C22.22421875 117.1328125 7.37421875 117.1328125 -7.92578125 117.1328125 C-8.42078125 114.6578125 -8.42078125 114.6578125 -8.92578125 112.1328125 C-2.49078125 111.6378125 -2.49078125 111.6378125 4.07421875 111.1328125 C4.40421875 76.4828125 4.73421875 41.8328125 5.07421875 6.1328125 C-1.85578125 5.6378125 -1.85578125 5.6378125 -8.92578125 5.1328125 C-8.92578125 3.8128125 -8.92578125 2.4928125 -8.92578125 1.1328125 C-5.88102714 0.24807224 -3.1662657 0.00414316 0 0 Z M24.07421875 5.1328125 C24.07421875 21.9628125 24.07421875 38.7928125 24.07421875 56.1328125 C28.15796875 56.2153125 32.24171875 56.2978125 36.44921875 56.3828125 C37.71556152 56.41922852 38.9819043 56.45564453 40.28662109 56.49316406 C48.23305844 56.57018128 55.70123958 55.84009468 61.97949219 50.51757812 C67.38508631 44.97072883 69.19506642 38.21502382 69.44921875 30.6328125 C69.18625192 22.45797414 67.09931373 15.89012549 61.07421875 10.1328125 C50.10997337 2.79194435 36.79051787 5.1328125 24.07421875 5.1328125 Z " fill="#F1C278" transform="translate(111.92578125,393.8671875)"/>
<path d="M0 0 C6.92161991 6.92161991 9.10515802 14.75053195 10.1015625 24.35546875 C10.18670609 25.17534271 10.27184967 25.99521667 10.35957336 26.8399353 C11.27182077 36.55965687 11.26575406 46.27729328 11.20581055 56.03173828 C11.18715076 59.18399872 11.18530435 62.33597048 11.18554688 65.48828125 C11.18064437 67.49479423 11.17482167 69.50130523 11.16796875 71.5078125 C11.16685593 72.44924103 11.1657431 73.39066956 11.16459656 74.36062622 C11.15821671 75.22017914 11.15183685 76.07973206 11.14526367 76.96533203 C11.14145187 77.72298859 11.13764008 78.48064514 11.13371277 79.26126099 C11 81 11 81 10 82 C8.45044441 82.09899523 6.89646327 82.13079524 5.34375 82.1328125 C3.93416016 82.13474609 3.93416016 82.13474609 2.49609375 82.13671875 C1.01302734 82.13091797 1.01302734 82.13091797 -0.5 82.125 C-1.48871094 82.12886719 -2.47742188 82.13273437 -3.49609375 82.13671875 C-4.43582031 82.13542969 -5.37554687 82.13414062 -6.34375 82.1328125 C-7.21193359 82.13168457 -8.08011719 82.13055664 -8.97460938 82.12939453 C-11 82 -11 82 -12 81 C-15.90532683 81.37793485 -19.2815754 81.76052513 -23 83 C-42.92896293 84.08513725 -42.92896293 84.08513725 -51.75 77.3125 C-56.73179426 72.70604641 -59.48550342 67.01345758 -60.03515625 60.203125 C-59.88580947 50.84406004 -57.34416202 43.64318433 -51.25 36.5625 C-40.23701719 26.20007314 -24.2085392 22.59772813 -10 19 C-10.59642978 17.10171843 -11.20250163 15.20646499 -11.8125 13.3125 C-12.14894531 12.25675781 -12.48539062 11.20101563 -12.83203125 10.11328125 C-14.40713584 5.91475832 -15.83655777 2.84349562 -19.5 0.1875 C-25.41465295 -1.81925725 -31.47032154 -2.19043692 -37.1875 0.5 C-37.785625 0.995 -38.38375 1.49 -39 2 C-37.7934375 3.1446875 -37.7934375 3.1446875 -36.5625 4.3125 C-33.54760967 7.47445816 -33.10211981 9.08092175 -32.625 13.375 C-33 17 -33 17 -34.9375 19.9375 C-39.03822139 22.69921032 -42.19012345 22.93500404 -47 22 C-49.84544089 20.36387149 -50.66278267 19.12923436 -51.59375 16.01171875 C-52.48697322 11.03887022 -52.03137225 7.24212931 -49.4921875 2.85546875 C-45.57072595 -2.02069417 -39.64157957 -5.5561331 -33.4921875 -6.75390625 C-21.33794549 -7.95409002 -9.9571688 -7.92047518 0 0 Z M-33.265625 39.12109375 C-39.60897309 45.99305419 -41.46745077 52.42560161 -41.3203125 61.6953125 C-40.79080749 67.1582544 -39.23845023 71.89180442 -35.1875 75.70703125 C-31.04059328 78.15814933 -26.63709692 77.78247002 -22 77 C-16.02165989 74.20415935 -12.68312505 69.88223568 -10 64 C-8.42031702 59.2194458 -7.75171024 55.10574647 -7.76953125 50.078125 C-7.77146484 48.80582031 -7.77339844 47.53351563 -7.77539062 46.22265625 C-7.78763672 44.91167969 -7.79988281 43.60070312 -7.8125 42.25 C-7.81395882 40.91015689 -7.81461656 39.57031265 -7.81445312 38.23046875 C-7.686962 31.5087866 -7.686962 31.5087866 -9 25 C-16.95644681 25 -27.85418929 33.92326735 -33.265625 39.12109375 Z " fill="#F1BD6E" transform="translate(279,429)"/>
<path d="M0 0 C0.76166977 0.00222061 1.52333954 0.00444122 2.30809021 0.00672913 C3.16890701 0.00680466 4.02972382 0.00688019 4.91662598 0.00695801 C5.8520372 0.01211929 6.78744843 0.01728058 7.75120544 0.02259827 C8.70422043 0.02401321 9.65723541 0.02542816 10.63912964 0.02688599 C13.69605085 0.032503 16.75289996 0.04505836 19.80979919 0.05775452 C21.87685543 0.06276733 23.94391281 0.06733061 26.01097107 0.07142639 C31.08977507 0.08247795 36.16852489 0.09975397 41.24729919 0.12025452 C41.80979919 2.05775452 41.80979919 2.05775452 42.24729919 4.12025452 C40.66457319 5.70298053 38.86695917 5.46761198 36.68479919 5.68275452 C35.85851013 5.76654358 35.03222107 5.85033264 34.18089294 5.93666077 C33.22376404 6.02753967 33.22376404 6.02753967 32.24729919 6.12025452 C37.43189482 18.71822596 42.69983767 31.27472004 48.18479919 43.74525452 C48.64475281 44.79253723 49.10470642 45.83981995 49.57859802 46.9188385 C51.6967368 51.71371596 53.87993838 56.44190878 56.24729919 61.12025452 C56.58350281 60.34238586 56.91970642 59.56451721 57.26609802 58.76307678 C64.86498187 41.18799744 72.51246033 23.63602187 80.24729919 6.12025452 C76.28729919 5.79025452 72.32729919 5.46025452 68.24729919 5.12025452 C68.57729919 3.47025452 68.90729919 1.82025452 69.24729919 0.12025452 C79.47729919 0.12025452 89.70729919 0.12025452 100.24729919 0.12025452 C101.23729919 2.59525452 101.23729919 2.59525452 102.24729919 5.12025452 C96.63729919 5.12025452 91.02729919 5.12025452 85.24729919 5.12025452 C84.69042419 6.89916077 84.69042419 6.89916077 84.12229919 8.71400452 C81.85902084 15.49326351 79.03001256 22.04264941 76.24729919 28.62025452 C75.6662244 29.9995592 75.08517 31.37887247 74.50413513 32.75819397 C69.62333288 44.32116725 64.61474643 55.82589488 59.50413513 67.28919983 C58.28397933 70.03763157 57.08018431 72.79269219 55.88011169 75.54994202 C41.76726554 107.77981445 41.76726554 107.77981445 30.55979919 116.12025452 C24.3852064 117.98428253 18.02615052 117.99507808 11.87229919 116.05775452 C6.12948301 111.81900924 2.40752121 107.33941374 1.24729919 100.12025452 C1.38286056 96.18897491 1.96081951 93.68127724 3.74729919 90.18275452 C6.94508275 87.54458308 8.98833659 87.39167512 13.05198669 87.63978577 C16.73584874 88.44604027 18.20761749 90.02783387 20.24729919 93.12025452 C20.93307528 97.3873057 20.74753034 99.32678443 18.43479919 102.99525452 C16.24729919 105.12025452 16.24729919 105.12025452 13.24729919 106.12025452 C12.58729919 107.11025452 11.92729919 108.10025452 11.24729919 109.12025452 C17.21792125 112.04464083 21.72452015 113.27054971 28.30979919 111.12025452 C35.77977819 106.03431137 41.04046082 96.37811946 44.24729919 88.12025452 C43.8268547 83.76185984 42.59831516 80.18892851 40.83323669 76.20228577 C40.32663513 75.04704407 39.82003357 73.89180237 39.29808044 72.70155334 C38.73950656 71.44527824 38.18091224 70.18901221 37.62229919 68.93275452 C36.74560529 66.94067993 35.87142971 64.947512 34.99736023 62.95428467 C34.38171104 61.55072002 33.76528113 60.14749759 33.14811707 58.74459839 C29.12578776 49.59294229 25.21513981 40.39329405 21.2943573 31.19779968 C17.70872884 22.79170161 14.06918825 14.42272941 10.24729919 6.12025452 C6.28729919 5.79025452 2.32729919 5.46025452 -1.75270081 5.12025452 C-2.08270081 3.80025452 -2.41270081 2.48025452 -2.75270081 1.12025452 C-1.75270081 0.12025452 -1.75270081 0.12025452 0 0 Z " fill="#F0BE70" transform="translate(296.75270080566406,422.87974548339844)"/>
<path d="M0 0 C1.38191528 -0.00193359 1.38191528 -0.00193359 2.79174805 -0.00390625 C10.40375094 0.1133142 16.80649183 1.43743816 23.875 4.375 C24.205 3.385 24.535 2.395 24.875 1.375 C25.865 1.375 26.855 1.375 27.875 1.375 C28.80053743 4.51350064 28.99164647 7.31180778 28.97265625 10.578125 C28.96943359 11.5578125 28.96621094 12.5375 28.96289062 13.546875 C28.95032227 15.07054687 28.95032227 15.07054687 28.9375 16.625 C28.93298828 17.65625 28.92847656 18.6875 28.92382812 19.75 C28.91206088 22.29172573 28.89562011 24.83333319 28.875 27.375 C27.885 27.375 26.895 27.375 25.875 27.375 C25.48828125 26.56675781 25.1015625 25.75851562 24.703125 24.92578125 C23.92195313 23.32283203 23.92195313 23.32283203 23.125 21.6875 C22.35929687 20.10388672 22.35929687 20.10388672 21.578125 18.48828125 C18.1257437 12.17739158 14.62574724 8.71402391 7.875 6.375 C1.8949615 5.08353629 -3.42004147 4.86481825 -9.125 7.375 C-11.75508779 9.54482243 -12.92765922 11.01438724 -13.421875 14.421875 C-13.3234247 19.18030626 -12.04923159 21.92646764 -8.671875 25.25390625 C-4.21970538 29.51252491 0.64972161 32.7698279 5.875 36 C20.1454261 44.9514491 20.1454261 44.9514491 23.875 48.375 C23.875 49.035 23.875 49.695 23.875 50.375 C24.535 50.375 25.195 50.375 25.875 50.375 C30.31458097 54.51554184 32.24968918 59.25611571 32.70117188 65.27612305 C32.8380415 71.15946385 32.37905656 75.855596 28.5 80.5625 C19.24134863 89.17864709 9.39503485 90.84684185 -2.765625 90.6640625 C-9.1401385 90.39039518 -15.14965105 88.6879336 -20.23046875 84.73828125 C-22.14183836 83.08295787 -22.14183836 83.08295787 -25.125 83.375 C-25.455 84.365 -25.785 85.355 -26.125 86.375 C-27.775 86.045 -29.425 85.715 -31.125 85.375 C-31.125 77.125 -31.125 68.875 -31.125 60.375 C-30.135 60.375 -29.145 60.375 -28.125 60.375 C-27.83367187 61.16003906 -27.54234375 61.94507813 -27.2421875 62.75390625 C-23.46078653 72.44523263 -19.75014818 79.04140924 -10.046875 83.49609375 C-3.43274016 85.48563966 3.82740954 85.6790686 10.20703125 82.94921875 C12.8583989 81.58027519 12.8583989 81.58027519 14.3125 79.6875 C15.40753029 75.18570881 15.03917428 71.42361763 12.76953125 67.4296875 C7.68370928 60.97108582 0.52370954 56.89745522 -6.31835938 52.53710938 C-26.4108415 39.61275601 -26.4108415 39.61275601 -30.4375 28.875 C-31.87395585 21.56213387 -31.41561287 15.16332129 -27.5 8.6875 C-20.06409753 1.44727917 -9.98727228 -0.01444944 0 0 Z " fill="#F1C074" transform="translate(430.125,421.625)"/>
<path d="M0 0 C1.02478203 -0.00065712 1.02478203 -0.00065712 2.07026672 -0.00132751 C4.3268397 0.00076135 6.58266827 0.02409581 8.83911133 0.04760742 C10.4042368 0.05320306 11.96936752 0.05747331 13.53450012 0.06047058 C17.65280682 0.07192199 21.77079583 0.10139148 25.88897705 0.13458252 C30.09171247 0.16527717 34.29449924 0.17897461 38.49731445 0.1940918 C46.74290291 0.2262611 54.98823322 0.27746077 63.23364258 0.34057617 C63.23364258 5.17616601 62.43349892 5.62152477 59.17114258 8.96557617 C34.83986339 35.1217013 25.74637143 73.77591644 24.44458008 108.58276367 C24.27338021 111.63265755 23.94189963 114.37982947 23.23364258 117.34057617 C20.25441664 117.36741605 17.27542963 117.38733654 14.29614258 117.40307617 C13.0209375 117.41564453 13.0209375 117.41564453 11.7199707 117.4284668 C10.91108398 117.43168945 10.10219727 117.43491211 9.26879883 117.43823242 C8.51993408 117.44346924 7.77106934 117.44870605 6.99951172 117.45410156 C5.23364258 117.34057617 5.23364258 117.34057617 4.23364258 116.34057617 C2.50036022 80.94983099 17.16840569 44.68260871 40.23364258 18.34057617 C40.93231445 17.53233398 41.63098633 16.7240918 42.35083008 15.89135742 C43.9676197 14.03107539 45.59392951 12.18064004 47.23364258 10.34057617 C43.92240819 8.36286975 41.40852751 8.08366395 37.57739258 8.07495117 C36.47137695 8.07237305 35.36536133 8.06979492 34.22583008 8.06713867 C32.49719727 8.07874023 32.49719727 8.07874023 30.73364258 8.09057617 C29.05141602 8.07897461 29.05141602 8.07897461 27.33520508 8.06713867 C13.44256247 7.83100215 13.44256247 7.83100215 1.23364258 13.34057617 C0.57364258 13.34057617 -0.08635742 13.34057617 -0.76635742 13.34057617 C-1.18594727 14.18168945 -1.18594727 14.18168945 -1.61401367 15.03979492 C-2.38850554 16.58615325 -3.16722353 18.13040148 -3.94995117 19.67260742 C-6.39206645 24.50358312 -8.69976876 29.33725626 -10.76635742 34.34057617 C-11.75635742 34.01057617 -12.74635742 33.68057617 -13.76635742 33.34057617 C-13.30737837 26.2976217 -12.4154765 19.32032122 -11.39135742 12.34057617 C-11.27751709 11.50357178 -11.16367676 10.66656738 -11.04638672 9.80419922 C-10.92561768 9.01182861 -10.80484863 8.21945801 -10.68041992 7.40307617 C-10.57681152 6.69280273 -10.47320312 5.9825293 -10.36645508 5.25073242 C-8.67432258 -0.13545337 -5.13243518 -0.02764328 0 0 Z " fill="#F1BE6F" transform="translate(13.766357421875,393.659423828125)"/>
<path d="M0 0 C17.16 0 34.32 0 52 0 C52 0.66 52 1.32 52 2 C45.07 2 38.14 2 31 2 C31 19.82 31 37.64 31 56 C37.6 56 44.2 56 51 56 C51 56.66 51 57.32 51 58 C45 59 45 59 32 59 C32.33 75.5 32.66 92 33 109 C37.29 109.33 41.58 109.66 46 110 C45.67 111.65 45.34 113.3 45 115 C30.15 115 15.3 115 0 115 C-0.495 112.525 -0.495 112.525 -1 110 C5.435 109.505 5.435 109.505 12 109 C12 74.02 12 39.04 12 3 C8.04 2.67 4.08 2.34 0 2 C0 1.34 0 0.68 0 0 Z " fill="#F2BE6A" transform="translate(104,396)"/>
<path d="M0 0 C3.875 1.75 3.875 1.75 5 4 C4.30664062 5.75244141 4.30664062 5.75244141 3.15625 7.8515625 C2.73762695 8.61718506 2.31900391 9.38280762 1.88769531 10.17163086 C1.20078613 11.38604858 1.20078613 11.38604858 0.5 12.625 C0.03948242 13.44299072 -0.42103516 14.26098145 -0.89550781 15.10375977 C-9.74556057 30.50809376 -9.74556057 30.50809376 -18 33 C-24.46148071 33.6238671 -30.58277333 33.99842921 -36 30 C-40.40845164 25.87905607 -43.02149071 22.08850227 -44 16 C-43.86443863 12.06872039 -43.28647969 9.56102272 -41.5 6.0625 C-38.30221644 3.42432856 -36.25896261 3.2714206 -32.1953125 3.51953125 C-28.51145046 4.32578575 -27.0396817 5.90757936 -25 9 C-24.31422392 13.26705119 -24.49976886 15.20652991 -26.8125 18.875 C-29 21 -29 21 -32 22 C-32.66 22.99 -33.32 23.98 -34 25 C-28.02937794 27.92438631 -23.52277904 29.1502952 -16.9375 27 C-9.05885886 21.6358188 -2.92898726 10.59519666 -0.30078125 1.609375 C-0.20152344 1.07828125 -0.10226562 0.5471875 0 0 Z " fill="#F1BF72" transform="translate(342,507)"/>
<path d="M0 0 C10.23 0 20.46 0 31 0 C31.66 1.65 32.32 3.3 33 5 C27.39 5 21.78 5 16 5 C15.44699219 6.77117187 15.44699219 6.77117187 14.8828125 8.578125 C12.58919201 15.45093866 9.70016308 22.08380897 6.875 28.75 C6.29510245 30.12498595 5.71543317 31.50006819 5.13598633 32.87524414 C0.47025128 43.93656326 -4.24428914 54.97707328 -9 66 C-9.33 65.34 -9.66 64.68 -10 64 C-11.98 64.495 -11.98 64.495 -14 65 C-13.25017427 61.42999043 -11.90077279 58.26464613 -10.4453125 54.92578125 C-10.058843 54.03594292 -10.058843 54.03594292 -9.66456604 53.12812805 C-8.82107206 51.18825079 -7.97311523 49.25036076 -7.125 47.3125 C-6.54119957 45.97259061 -5.95762424 44.63258312 -5.37426758 43.29248047 C0.04849068 30.84620124 5.51573491 18.41927766 11 6 C7.04 5.67 3.08 5.34 -1 5 C-0.67 3.35 -0.34 1.7 0 0 Z " fill="#F6D7A4" transform="translate(366,423)"/>
<path d="M0 0 C0 0.33 0 0.66 0 1 C-4.62 1.33 -9.24 1.66 -14 2 C-11.03 2.99 -8.06 3.98 -5 5 C-8.13421934 6.04473978 -10.10671464 6.0093131 -13.375 5.875 C-17.77362475 5.81674007 -20.49069091 6.0957442 -24 9 C-22.7934375 10.1446875 -22.7934375 10.1446875 -21.5625 11.3125 C-18.54760967 14.47445816 -18.10211981 16.08092175 -17.625 20.375 C-18 24 -18 24 -19.9375 26.9375 C-24.03822139 29.69921032 -27.19012345 29.93500404 -32 29 C-34.84544089 27.36387149 -35.66278267 26.12923436 -36.59375 23.01171875 C-37.48697322 18.03887022 -37.03137225 14.24212931 -34.4921875 9.85546875 C-30.56617751 4.97365005 -24.66591397 1.48970633 -18.52734375 0.234375 C-12.37395764 -0.33626359 -6.17115349 -0.13480675 0 0 Z " fill="#F2C47D" transform="translate(264,422)"/>
<path d="M0 0 C0.9115686 0.39940796 0.9115686 0.39940796 1.84155273 0.80688477 C14.50394481 6.34914114 27.19001842 11.80722895 40 17 C40 17.99 40 18.98 40 20 C38.61518672 20.87191947 37.21654754 21.72190384 35.8125 22.5625 C35.03519531 23.03816406 34.25789063 23.51382813 33.45703125 24.00390625 C30.39875078 25.24374968 29.14599904 24.89660827 26 24 C23.70751953 22.66479492 23.70751953 22.66479492 21.3828125 20.98046875 C20.10083984 20.06491211 20.10083984 20.06491211 18.79296875 19.13085938 C17.91253906 18.48955078 17.03210938 17.84824219 16.125 17.1875 C10.5458863 13.16180274 5.05681591 9.27596174 -1 6 C-0.34 5.34 0.32 4.68 1 4 C0.6814823 1.89179203 0.6814823 1.89179203 0 0 Z " fill="#F3C886" transform="translate(247,160)"/>
<path d="M0 0 C0.5625 2.625 0.5625 2.625 0 6 C-1.83641653 7.67218416 -3.81587647 8.81080969 -5.95703125 10.0703125 C-8.45027385 11.65139317 -10.65708926 13.27234275 -12.94921875 15.1171875 C-13.99529297 15.94935791 -13.99529297 15.94935791 -15.0625 16.79833984 C-16.46607334 17.92229505 -17.85837018 19.06049606 -19.23828125 20.21337891 C-21.12086418 21.69499013 -22.83546963 22.97187687 -25 24 C-28.24609375 23.4765625 -28.24609375 23.4765625 -31 22 C-31.69867188 21.64679688 -32.39734375 21.29359375 -33.1171875 20.9296875 C-34.74479167 19.953125 -36.37239583 18.9765625 -38 18 C-38 17.34 -38 16.68 -38 16 C-37.28021973 15.70649658 -36.56043945 15.41299316 -35.81884766 15.1105957 C-27.13584003 11.5359393 -18.62580518 7.64270842 -10.12109375 3.66601562 C-9.09886719 3.19228516 -8.07664063 2.71855469 -7.0234375 2.23046875 C-5.64551025 1.58694458 -5.64551025 1.58694458 -4.23974609 0.93041992 C-2 0 -2 0 0 0 Z " fill="#F3C885" transform="translate(213,162)"/>
<path d="M0 0 C12.02836128 -0.44353623 22.7080559 -0.69275599 34 4 C34.33 3.01 34.66 2.02 35 1 C35.99 1 36.98 1 38 1 C38.92553743 4.13850064 39.11664647 6.93680778 39.09765625 10.203125 C39.09443359 11.1828125 39.09121094 12.1625 39.08789062 13.171875 C39.07532227 14.69554687 39.07532227 14.69554687 39.0625 16.25 C39.05798828 17.28125 39.05347656 18.3125 39.04882812 19.375 C39.03706088 21.91672573 39.02062011 24.45833319 39 27 C38.01 27 37.02 27 36 27 C35.61328125 26.19175781 35.2265625 25.38351562 34.828125 24.55078125 C34.04695313 22.94783203 34.04695313 22.94783203 33.25 21.3125 C32.48429687 19.72888672 32.48429687 19.72888672 31.703125 18.11328125 C28.26094772 11.82104434 24.75128384 8.30813123 18 6 C13.0078518 5.08819211 8.06350371 4.96402484 3 5 C6.00617269 1.99382731 8.82381598 2.40414684 13 2 C8.71 1.67 4.42 1.34 0 1 C0 0.67 0 0.34 0 0 Z " fill="#F3C987" transform="translate(420,422)"/>
<path d="M0 0 C0.33 0 0.66 0 1 0 C0.67 33.33 0.34 66.66 0 101 C1.32 101.33 2.64 101.66 4 102 C2.34385343 102.38218767 0.67542976 102.71395102 -1 103 C-2.78238018 101.21761982 -2.13260356 98.82079901 -2.14663696 96.44650269 C-2.14618378 95.6492276 -2.14573059 94.85195251 -2.14526367 94.03051758 C-2.14862228 93.19454544 -2.1519809 92.3585733 -2.15544128 91.49726868 C-2.16499387 88.71300799 -2.16689757 85.92880734 -2.16796875 83.14453125 C-2.17118203 81.20651729 -2.17454615 79.26850356 -2.17805481 77.33049011 C-2.18405937 73.25230346 -2.18589372 69.17413803 -2.18530273 65.09594727 C-2.18520187 59.90369186 -2.19876869 54.71157556 -2.21607494 49.51935291 C-2.22727936 45.50668228 -2.22921925 41.49404415 -2.22869301 37.48135948 C-2.22986373 35.56986709 -2.23423378 33.65837361 -2.24202538 31.74689674 C-2.28182257 20.96023757 -1.95392258 10.64294501 0 0 Z " fill="#F6E0BC" transform="translate(249,253)"/>
<path d="M0 0 C3.875 1.75 3.875 1.75 5 4 C4.30664062 5.75244141 4.30664062 5.75244141 3.15625 7.8515625 C2.73762695 8.61718506 2.31900391 9.38280762 1.88769531 10.17163086 C1.20078613 11.38604858 1.20078613 11.38604858 0.5 12.625 C0.03948242 13.44299072 -0.42103516 14.26098145 -0.89550781 15.10375977 C-5.27105789 22.71980868 -9.40224614 29.80083577 -18 33 C-18.66 33 -19.32 33 -20 33 C-20 32.01 -20 31.02 -20 30 C-21.98 30 -23.96 30 -26 30 C-26 29.67 -26 29.34 -26 29 C-25.40832031 28.90203125 -24.81664062 28.8040625 -24.20703125 28.703125 C-23.41683594 28.55359375 -22.62664062 28.4040625 -21.8125 28.25 C-21.03519531 28.11078125 -20.25789063 27.9715625 -19.45703125 27.828125 C-11.4239878 25.12064454 -7.82052806 16.97904396 -4 10 C-2.50174949 6.71553439 -1.17142609 3.41409051 0 0 Z " fill="#F5CE8D" transform="translate(342,507)"/>
<path d="M0 0 C0.33 0 0.66 0 1 0 C1.02527002 6.53278786 1.04283292 13.06556321 1.05493164 19.59838867 C1.05997317 21.82267732 1.06680623 24.04696263 1.07543945 26.27124023 C1.08751298 29.46078309 1.09322996 32.65028229 1.09765625 35.83984375 C1.10281754 36.84087631 1.10797882 37.84190887 1.11329651 38.87327576 C1.11340981 40.25459435 1.11340981 40.25459435 1.11352539 41.66381836 C1.115746 42.47878281 1.11796661 43.29374725 1.12025452 44.13340759 C1 46 1 46 0 47 C-1.54955559 47.09899523 -3.10353673 47.13079524 -4.65625 47.1328125 C-6.06583984 47.13474609 -6.06583984 47.13474609 -7.50390625 47.13671875 C-8.49261719 47.13285156 -9.48132813 47.12898438 -10.5 47.125 C-11.48871094 47.12886719 -12.47742188 47.13273437 -13.49609375 47.13671875 C-14.43582031 47.13542969 -15.37554687 47.13414062 -16.34375 47.1328125 C-17.21193359 47.13168457 -18.08011719 47.13055664 -18.97460938 47.12939453 C-21 47 -21 47 -22 46 C-24.67058851 45.85884839 -27.32432238 45.95752893 -30 46 C-29.278125 45.443125 -28.55625 44.88625 -27.8125 44.3125 C-25.02134888 42.01755352 -22.52025033 39.5865727 -20 37 C-19.01 36.01 -18.02 35.02 -17 34 C-17 36.97 -17 39.94 -17 43 C-18.32 43 -19.64 43 -21 43 C-21 43.66 -21 44.32 -21 45 C-14.4 45 -7.8 45 -1 45 C-0.67 30.15 -0.34 15.3 0 0 Z " fill="#F9EAD2" transform="translate(289,464)"/>
<path d="M0 0 C1.02478203 -0.00065712 1.02478203 -0.00065712 2.07026672 -0.00132751 C4.3268397 0.00076135 6.58266827 0.02409581 8.83911133 0.04760742 C10.4042368 0.05320306 11.96936752 0.05747331 13.53450012 0.06047058 C17.65280682 0.07192199 21.77079583 0.10139148 25.88897705 0.13458252 C30.09171247 0.16527717 34.29449924 0.17897461 38.49731445 0.1940918 C46.74290291 0.2262611 54.98823322 0.27746077 63.23364258 0.34057617 C63.23364258 1.66057617 63.23364258 2.98057617 63.23364258 4.34057617 C62.24364258 5.00057617 61.25364258 5.66057617 60.23364258 6.34057617 C59.73864258 4.85557617 59.73864258 4.85557617 59.23364258 3.34057617 C26.06864258 2.84557617 26.06864258 2.84557617 -7.76635742 2.34057617 C-7.76635742 3.00057617 -7.76635742 3.66057617 -7.76635742 4.34057617 C-8.42635742 4.01057617 -9.08635742 3.68057617 -9.76635742 3.34057617 C-7.06278369 -0.37105917 -4.3785744 -0.02358299 0 0 Z " fill="#F7E6C9" transform="translate(13.766357421875,393.659423828125)"/>
<path d="M0 0 C0.74056641 0.00451172 1.48113281 0.00902344 2.24414062 0.01367188 C4.05862899 0.02537825 5.87307534 0.04331102 7.6875 0.0625 C7.6875 0.3925 7.6875 0.7225 7.6875 1.0625 C3.0675 1.3925 -1.5525 1.7225 -6.3125 2.0625 C-3.3425 3.0525 -0.3725 4.0425 2.6875 5.0625 C-0.41227271 6.09575757 -2.39121122 6.10287295 -5.625 6 C-9.9334784 5.94857254 -13.30210108 6.32827344 -17.3125 8.0625 C-17.3125 7.0725 -17.3125 6.0825 -17.3125 5.0625 C-17.9725 4.7325 -18.6325 4.4025 -19.3125 4.0625 C-12.6918975 0.5212475 -7.44238123 -0.08646198 0 0 Z " fill="#F7DBB1" transform="translate(256.3125,421.9375)"/>
<path d="M0 0 C1.28785652 0.00212242 1.28785652 0.00212242 2.60173035 0.00428772 C5.33217924 0.00986568 8.06254482 0.02241411 10.79296875 0.03515625 C12.64908735 0.0401741 14.50520725 0.04473651 16.36132812 0.04882812 C20.90107355 0.05982789 25.44075705 0.07707732 29.98046875 0.09765625 C27.60263037 2.47549463 26.2597321 2.68774833 22.98046875 3.09765625 C22.32046875 2.76765625 21.66046875 2.43765625 20.98046875 2.09765625 C19.15047573 2.00057925 17.31693993 1.96689278 15.484375 1.96484375 C14.36740234 1.96355469 13.25042969 1.96226562 12.09960938 1.9609375 C10.92591797 1.96480469 9.75222656 1.96867187 8.54296875 1.97265625 C7.40408203 1.96878906 6.26519531 1.96492188 5.09179688 1.9609375 C-2.00041142 1.96903825 -8.97036743 2.31451493 -16.01953125 3.09765625 C-11.87252797 -1.04934703 -5.51567251 -0.03441189 0 0 Z " fill="#FAF1E2" transform="translate(36.01953125,399.90234375)"/>
<path d="M0 0 C0 1.32 0 2.64 0 4 C-0.99 4.66 -1.98 5.32 -3 6 C-3.33 5.01 -3.66 4.02 -4 3 C-14.23 2.67 -24.46 2.34 -35 2 C-35 1.67 -35 1.34 -35 1 C-23.31514456 0.28874793 -11.70795574 -0.14534014 0 0 Z " fill="#F6DEB8" transform="translate(77,394)"/>
<path d="M0 0 C-0.49658297 5.66104589 -1.54510684 9.87674471 -4 15 C-5.32 15 -6.64 15 -8 15 C-8.26924445 11.0038455 -7.62859959 8.70128716 -5.625 5.25 C-5.18414062 4.47140625 -4.74328125 3.6928125 -4.2890625 2.890625 C-3.07798061 1.11437156 -2.29705098 0 0 0 Z " fill="#F3D094" transform="translate(378,434)"/>
<path d="M0 0 C9.57 0 19.14 0 29 0 C29 0.33 29 0.66 29 1 C24.05 1 19.1 1 14 1 C13.67 1.99 13.34 2.98 13 4 C8.71 3.67 4.42 3.34 0 3 C0 2.01 0 1.02 0 0 Z " fill="#EFB456" transform="translate(366,424)"/>
<path d="M0 0 C10.89761308 -0.2071352 21.27133239 -0.15729044 32 2 C32 2.33 32 2.66 32 3 C28.09726683 3.068469 24.48981783 3.0725656 20.625 2.5 C16.06109531 1.87049591 11.5984349 1.91672854 7 2 C7 2.66 7 3.32 7 4 C5.1875 4.6875 5.1875 4.6875 3 5 C1.25 3.6875 1.25 3.6875 0 2 C0 1.34 0 0.68 0 0 Z " fill="#FAECD5" transform="translate(242,155)"/>
<path d="M0 0 C1.5778125 0.00676758 1.5778125 0.00676758 3.1875 0.01367188 C5.75006221 0.02531989 8.31249877 0.04167447 10.875 0.0625 C10.875 0.7225 10.875 1.3825 10.875 2.0625 C8.875 3.6875 8.875 3.6875 6.875 5.0625 C6.215 4.7325 5.555 4.4025 4.875 4.0625 C4.875 3.0725 4.875 2.0825 4.875 1.0625 C3.96234375 1.17078125 3.96234375 1.17078125 3.03125 1.28125 C-5.36949341 2.17074048 -13.690624 2.15774389 -22.125 2.0625 C-22.125 1.7325 -22.125 1.4025 -22.125 1.0625 C-14.72572623 0.1527196 -7.44976219 -0.06160745 0 0 Z " fill="#FBEFDE" transform="translate(208.125,156.9375)"/>
<path d="M0 0 C0.33 0 0.66 0 1 0 C1 2.97 1 5.94 1 9 C-0.32 9 -1.64 9 -3 9 C-3.33 9.99 -3.66 10.98 -4 12 C-6.64 12 -9.28 12 -12 12 C-11.278125 11.443125 -10.55625 10.88625 -9.8125 10.3125 C-6.01277877 7.18828476 -2.73412747 4.1011912 0 0 Z " fill="#FCF8EE" transform="translate(271,498)"/>
<path d="M0 0 C0.598125 0.28875 1.19625 0.5775 1.8125 0.875 C2.1425 1.865 2.4725 2.855 2.8125 3.875 C6.1125 3.875 9.4125 3.875 12.8125 3.875 C12.4825 4.535 12.1525 5.195 11.8125 5.875 C9.75007383 5.90217692 7.68754297 5.9214758 5.625 5.9375 C4.47644531 5.94910156 3.32789063 5.96070313 2.14453125 5.97265625 C-0.78050586 5.88692832 -3.35066291 5.55349023 -6.1875 4.875 C-6.1875 4.215 -6.1875 3.555 -6.1875 2.875 C-4.07102823 0.8341165 -2.99567331 -0.17118133 0 0 Z " fill="#FBF3E4" transform="translate(248.1875,146.125)"/>
<path d="M0 0 C4.33168317 -0.26252625 7.8803623 0.70756464 12 2 C12 2.99 12 3.98 12 5 C10.56208484 4.85831863 9.1246763 4.71148957 7.6875 4.5625 C6.88699219 4.48128906 6.08648437 4.40007813 5.26171875 4.31640625 C3 4 3 4 0 3 C0 2.01 0 1.02 0 0 Z " fill="#F7C16E" transform="translate(310,535)"/>
<path d="M0 0 C0 3 0 3 -2.3359375 5.69921875 C-3.34119508 6.70314662 -4.35458968 7.6989775 -5.375 8.6875 C-5.88289063 9.19861328 -6.39078125 9.70972656 -6.9140625 10.23632812 C-10.73300859 14 -10.73300859 14 -13 14 C-11.54238919 10.63163511 -9.6759774 8.43494248 -7.0625 5.875 C-6.37285156 5.19179687 -5.68320312 4.50859375 -4.97265625 3.8046875 C-3 2 -3 2 0 0 Z " fill="#F6D6A6" transform="translate(278,209)"/>
<path d="M0 0 C0.99 0 1.98 0 3 0 C3.92553743 3.13850064 4.11664647 5.93680778 4.09765625 9.203125 C4.09443359 10.1828125 4.09121094 11.1625 4.08789062 12.171875 C4.07951172 13.18765625 4.07113281 14.2034375 4.0625 15.25 C4.05798828 16.28125 4.05347656 17.3125 4.04882812 18.375 C4.03706088 20.91672573 4.02062011 23.45833319 4 26 C3.01 26 2.02 26 1 26 C1.33 17.75 1.66 9.5 2 1 C1.34 0.67 0.68 0.34 0 0 Z " fill="#F8E4C2" transform="translate(455,423)"/>
<path d="M0 0 C1.32 0.99 2.64 1.98 4 3 C3.67 3.99 3.34 4.98 3 6 C5.97 6.495 5.97 6.495 9 7 C5.98990772 8.27350058 4.99218495 7.99687398 1.875 6.75 C-1 5 -1 5 -3 2 C-2.01 2 -1.02 2 0 2 C0 1.34 0 0.68 0 0 Z " fill="#F7D6A3" transform="translate(307,532)"/>
<path d="M0 0 C0.33 0.99 0.66 1.98 1 3 C-0.81115956 4.81115956 -3.61278227 4.38199448 -6.0625 4.5625 C-7.16722656 4.64628906 -8.27195312 4.73007812 -9.41015625 4.81640625 C-10.26480469 4.87699219 -11.11945313 4.93757813 -12 5 C-12 4.01 -12 3.02 -12 2 C-8.04 2 -4.08 2 0 2 C0 1.34 0 0.68 0 0 Z " fill="#F8E0B9" transform="translate(338,424)"/>
<path d="M0 0 C0.66 0.33 1.32 0.66 2 1 C0.38150935 2.83946539 -1.24418831 4.67151417 -2.875 6.5 C-3.33519531 7.02464844 -3.79539062 7.54929687 -4.26953125 8.08984375 C-5.47172076 9.43141755 -6.73245946 10.71999185 -8 12 C-8.66 12 -9.32 12 -10 12 C-8.52278578 8.54798361 -6.56205999 6.35038064 -3.875 3.75 C-3.15054687 3.04359375 -2.42609375 2.3371875 -1.6796875 1.609375 C-1.12539063 1.07828125 -0.57109375 0.5471875 0 0 Z " fill="#F7DEB9" transform="translate(303,25)"/>
<path d="M0 0 C0 0.99 0 1.98 0 3 C-2.375 4.5625 -2.375 4.5625 -5 6 C-5.66 6.66 -6.32 7.32 -7 8 C-7.99 7.67 -8.98 7.34 -10 7 C-10 6.01 -10 5.02 -10 4 C-7.98177083 3.54427083 -5.96354167 3.08854167 -3.9453125 2.6328125 C-1.79280036 2.09525572 -1.79280036 2.09525572 0 0 Z " fill="#FCF5E6" transform="translate(315,523)"/>
<path d="M0 0 C1.41750563 0.11509661 2.83401169 0.24253658 4.25 0.375 C5.03890625 0.44460938 5.8278125 0.51421875 6.640625 0.5859375 C9 1 9 1 13 3 C8.71 3 4.42 3 0 3 C0 2.01 0 1.02 0 0 Z " fill="#F5BA5C" transform="translate(366,424)"/>
<path d="M0 0 C-0.66 0 -1.32 0 -2 0 C-2 0.66 -2 1.32 -2 2 C-5.11771927 3.60339848 -6.39011689 4.18974141 -9.8125 3.125 C-10.534375 2.75375 -11.25625 2.3825 -12 2 C-12 1.67 -12 1.34 -12 1 C-10.56496445 0.63597631 -9.12683494 0.28413409 -7.6875 -0.0625 C-6.88699219 -0.25972656 -6.08648437 -0.45695312 -5.26171875 -0.66015625 C-3 -1 -3 -1 0 0 Z " fill="#FCF5E2" transform="translate(184,451)"/>
<path d="M0 0 C0 0.66 0 1.32 0 2 C-0.99 2.33 -1.98 2.66 -3 3 C-2.34 3.66 -1.68 4.32 -1 5 C-2.32 5.33 -3.64 5.66 -5 6 C-5 5.01 -5 4.02 -5 3 C-6.98 3 -8.96 3 -11 3 C-11 2.67 -11 2.34 -11 2 C-9.5422647 1.664061 -8.08378894 1.33133376 -6.625 1 C-5.40683594 0.7215625 -5.40683594 0.7215625 -4.1640625 0.4375 C-2 0 -2 0 0 0 Z " fill="#F8DCB2" transform="translate(327,534)"/>
<path d="M0 0 C3.875 1.75 3.875 1.75 5 4 C4.01 4.33 3.02 4.66 2 5 C1.67 5.99 1.34 6.98 1 8 C-0.32 7.67 -1.64 7.34 -3 7 C-2.01 7 -1.02 7 0 7 C0 4.69 0 2.38 0 0 Z " fill="#FDFAF1" transform="translate(403,500)"/>
<path d="M0 0 C3.875 1.75 3.875 1.75 5 4 C4.01 5.32 3.02 6.64 2 8 C1.67 7.34 1.34 6.68 1 6 C0.34 6 -0.32 6 -1 6 C-0.67 4.02 -0.34 2.04 0 0 Z " fill="#F7DDB4" transform="translate(342,507)"/>
<path d="M0 0 C2.97 0 5.94 0 9 0 C9.33 0.66 9.66 1.32 10 2 C6.7 2.33 3.4 2.66 0 3 C0 2.01 0 1.02 0 0 Z " fill="#F3B761" transform="translate(424,423)"/>
<path d="M0 0 C0.33 0.99 0.66 1.98 1 3 C-0.4375 5.1875 -0.4375 5.1875 -2 7 C-2 5.68 -2 4.36 -2 3 C-2.66 3 -3.32 3 -4 3 C-4.33 4.32 -4.66 5.64 -5 7 C-5.33 6.34 -5.66 5.68 -6 5 C-5.67 4.01 -5.34 3.02 -5 2 C-2.4375 0.8125 -2.4375 0.8125 0 0 Z " fill="#F8E0BB" transform="translate(367,461)"/>
<path d="M0 0 C3.63 0.33 7.26 0.66 11 1 C11 1.33 11 1.66 11 2 C7.7 2 4.4 2 1 2 C0.67 2.66 0.34 3.32 0 4 C0 2.68 0 1.36 0 0 Z " fill="#F7E2C0" transform="translate(99,77)"/>
<path d="M0 0 C1.32 0.66 2.64 1.32 4 2 C3.34 3.65 2.68 5.3 2 7 C1.01 6.34 0.02 5.68 -1 5 C-0.67 3.35 -0.34 1.7 0 0 Z " fill="#F4D5A0" transform="translate(335,522)"/>
<path d="M0 0 C0 1.65 0 3.3 0 5 C-1.32 5.33 -2.64 5.66 -4 6 C-3.625 3.5625 -3.625 3.5625 -3 1 C-1 0 -1 0 0 0 Z " fill="#F2C57D" transform="translate(378,434)"/>
<path d="M0 0 C1.98 0 3.96 0 6 0 C6 0.66 6 1.32 6 2 C4 3.625 4 3.625 2 5 C1.34 4.67 0.68 4.34 0 4 C0 2.68 0 1.36 0 0 Z " fill="#FCF5E8" transform="translate(213,157)"/>
<path d="M0 0 C2.31 0.33 4.62 0.66 7 1 C7 1.66 7 2.32 7 3 C5.68 3.33 4.36 3.66 3 4 C2.01 2.68 1.02 1.36 0 0 Z " fill="#FDFDF5" transform="translate(242,156)"/>
<path d="" fill="#FFFFFB" transform="translate(0,0)"/>
<path d="" fill="#FFFFFB" transform="translate(0,0)"/>
<path d="" fill="#FFFEFA" transform="translate(0,0)"/>
<path d="" fill="#FEFFFA" transform="translate(0,0)"/>
<path d="" fill="#FFFFFB" transform="translate(0,0)"/>
</svg>
